Coordinates
version=1
nRows=18
nColumns=28
inDegrees=yes

Units are S.I. units (second, meters, Newtons, ...)
Angles are in degrees.

endheader
time	pelvis_tilt	pelvis_list	pelvis_rotation	pelvis_tx	pelvis_ty	pelvis_tz	hip_flexion_r	hip_adduction_r	hip_rotation_r	knee_angle_r	ankle_angle_r	subtalar_angle_r	mtp_angle_r	hip_flexion_l	hip_adduction_l	hip_rotation_l	knee_angle_l	socket_flexion	socket_adduction	socket_rotation	socket_tx	socket_ty	socket_tz	foot_flex	lumbar_extension	lumbar_bending	lumbar_rotation
      0.62500000	      1.44730351	     -5.69375643	      6.18520489	     -0.00775493	      0.99211787	      0.26152749	     21.65351972	      6.22318305	     -8.52724049	     -3.99426550	     10.93400887	    -20.09955494	    -11.33112302	    -25.67461096	     -9.64589414	     -5.05907034	     -3.08930012	      1.38182137	      0.96291089	     22.91831181	     -0.01003600	     -0.00070426	     -0.00955805	      7.98629596	    -11.08582848	      6.51426981	     -3.86840551
      0.62916667	      1.44709763	     -5.69405614	      6.18509217	     -0.00775614	      0.99211690	      0.26153387	     21.65332343	      6.22300731	     -8.52719560	     -3.99430766	     10.93403843	    -20.09960016	    -11.33099803	    -25.67462094	     -9.64582469	     -5.05901059	     -3.08929859	      1.38177981	      0.96298317	     22.91831181	     -0.01003427	     -0.00070864	     -0.00955834	      7.98631393	    -11.08573539	      6.51433314	     -3.86838365
      0.63333333	      1.49535651	     -5.79459261	      6.27399416	     -0.00143173	      0.99120503	      0.26168239	     21.81075897	      6.35720649	     -8.30078228	     -4.77212886	     10.62990002	    -20.15155930	    -11.26266439	    -25.84178508	     -9.73035510	     -4.97973340	     -3.29456334	      1.62410456	      0.90607655	     22.91831181	     -0.00884030	     -0.00062312	     -0.00894554	      7.92985602	    -11.07713503	      6.73820587	     -3.90090764
      0.63750000	      1.52826508	     -5.86949880	      6.27994230	      0.00490539	      0.99018116	      0.26204152	     22.13888941	      6.46648040	     -8.26206935	     -5.86243745	     10.12660468	    -20.35871266	    -11.08647429	    -26.02571723	     -9.83628575	     -5.20884526	     -3.51146627	      1.84643467	      0.93253995	     22.91831181	     -0.00818242	     -0.00065767	     -0.00929153	      7.84853127	    -11.08560321	      6.91249091	     -3.98130468
      0.64166667	      1.54374962	     -5.98145618	      6.28902838	      0.01124773	      0.98920808	      0.26236196	     22.43976073	      6.61510154	     -8.14095025	     -6.87343922	      9.62030417	    -20.52093689	    -10.80907704	    -26.14538119	     -9.94326789	     -5.32462427	     -3.75232989	      2.10521673	      0.93324963	     22.91831181	     -0.00711907	     -0.00066712	     -0.00925383	      7.74433874	    -11.05687094	      7.12490662	     -4.00776171
      0.64583333	      1.55481294	     -6.09596116	      6.29174631	      0.01762467	      0.98827309	      0.26270823	     22.73551161	      6.76539552	     -8.03032920	     -7.88125966	      9.06629742	    -20.68228487	    -10.44905638	    -26.22375389	    -10.05621333	     -5.44851875	     -4.02188958	      2.38795364	      0.94634559	     22.91831181	     -0.00587411	     -0.00065606	     -0.00933147	      7.62299342	    -11.01081533	      7.34907044	     -4.01045066
      0.65000000	      1.57514964	     -6.22584886	      6.29015586	      0.02397757	      0.98738514	      0.26308761	     23.03245400	      6.93507320	     -7.92527393	     -8.90929712	      8.48412802	    -20.82930733	    -10.06485976	    -26.27486534	    -10.17955499	     -5.56995176	     -4.31775386	      2.70184105	      0.94631501	     22.91831181	     -0.00444031	     -0.00066642	     -0.00941114	      7.46554739	    -10.99416698	      7.57138775	     -4.00581358
      0.65416667	      1.58407440	     -6.35267627	      6.26806725	      0.03037735	      0.98652197	      0.26350627	     23.34242441	      7.09745088	     -7.84855974	     -9.96447791	      7.86469915	    -20.99372873	     -9.58928802	    -26.29199315	    -10.30072195	     -5.72383891	     -4.63763156	      3.02943723	      0.97400048	     22.91831181	     -0.00292891	     -0.00065403	     -0.00960300	      7.29073234	    -10.94308600	      7.80108340	     -3.98236021
      0.65833333	      1.60261227	     -6.49666275	      6.24316348	      0.03677499	      0.98574607	      0.26396335	     23.63479694	      7.28294639	     -7.76841021	    -11.00917756	      7.24899615	    -21.13699401	     -9.08929570	    -26.26952433	    -10.42861928	     -5.87007500	     -4.99056418	      3.39360886	      0.99075454	     22.91831181	     -0.00110990	     -0.00058272	     -0.00972234	      7.08157458	    -10.91193790	      8.03947843	     -3.94594789
      0.66250000	      1.13121707	     -6.49054403	      6.26949266	      0.04338678	      0.98441041	      0.26439157	     24.38343047	      7.20152448	     -7.77159255	    -11.84350786	      4.26127841	    -22.71798898	     -0.64882192	    -25.55986033	    -10.42044949	     -5.66589104	     -5.31820628	      3.95561407	      1.07741882	     22.91831181	      0.00193699	     -0.00029680	     -0.01034818	      6.82956225	    -10.26987740	      8.05104151	     -4.00926063
      0.66666667	      1.32888035	     -6.69757363	      6.23636542	      0.04984655	      0.98405281	      0.26464900	     24.46443868	      7.43756629	     -7.82100892	    -12.88343973	      3.91701206	    -22.71319669	     -0.62072109	    -25.66276903	    -10.52489439	     -5.94843304	     -5.72768849	      4.40394498	      1.01464035	     22.91831181	      0.00439454	     -0.00000048	     -0.00979734	      6.59759828	    -10.43892784	      8.39228374	     -3.98587499
      0.67083333	      1.46449053	     -6.86907885	      6.23085520	      0.05628096	      0.98369472	      0.26503994	     24.53620047	      7.67148446	     -7.66809669	    -13.79179017	      3.58758234	    -22.64998565	     -0.60018503	    -25.71001321	    -10.61591802	     -5.93036188	     -6.11795953	      4.82358797	      0.98237830	     22.91831181	      0.00644699	      0.00022566	     -0.00899560	      6.31995260	    -10.53940496	      8.73305269	     -3.94749069
      0.67500000	      1.62470582	     -7.03537679	      6.12698880	      0.06272939	      0.98328042	      0.26570647	     24.71841736	      7.89118731	     -7.77251879	    -14.97154687	      3.10722718	    -22.62782593	     -0.53468887	    -25.71551558	    -10.81414648	     -6.32218266	     -6.58999157	      5.26687644	      1.07336811	     22.91831181	      0.00868169	      0.00052974	     -0.00997155	      5.97636769	    -10.67944003	      8.95645458	     -3.88083332
      0.67916667	      1.73986509	     -7.23236605	      6.03283270	      0.06924774	      0.98294157	      0.26628723	     24.85820140	      8.14317582	     -7.77111153	    -15.99763988	      2.73657270	    -22.57945820	     -0.41213817	    -25.64200465	    -10.97661241	     -6.57766189	     -7.07908726	      5.74697654	      1.12360652	     22.91831181	      0.01121684	      0.00092117	     -0.01020500	      5.62980733	    -10.74850479	      9.24956359	     -3.76680655
      0.68333333	      1.84118262	     -7.43072939	      5.93497669	      0.07576742	      0.98265330	      0.26690767	     24.99305753	      8.40096309	     -7.75212064	    -16.99588277	      2.38780844	    -22.52368597	     -0.27072405	    -25.51892400	    -11.14798225	     -6.80736625	     -7.59187396	      6.24620626	      1.18398625	     22.91831181	      0.01384540	      0.00139957	     -0.01050931	      5.25396076	    -10.80540183	      9.53209039	     -3.64328250
      0.68750000	      1.94834663	     -7.63576443	      5.84420269	      0.08222522	      0.98252323	      0.26741681	     25.04562081	      8.67491621	     -7.63656993	    -17.85795479	      2.12762103	    -22.46428694	     -0.19020544	    -25.39960097	    -11.24397264	     -6.83848247	     -8.10123786	      6.76651808	      1.19033604	     22.83910278	      0.01647733	      0.00194762	     -0.00994919	      4.87973131	    -10.88316557	      9.86784614	     -3.55973614
      0.69166667	      1.98445704	     -7.82570375	      5.69786833	      0.08882981	      0.98215856	      0.26831830	     25.28407326	      8.92460726	     -7.72630674	    -18.95966489	      1.76336922	    -22.39844753	      0.08433769	    -25.11069293	    -11.52455894	     -7.22353736	     -8.70186379	      7.30152516	      1.37628144	     22.91831181	      0.01930882	      0.00257926	     -0.01154441	      4.47517817	    -10.84812844	     10.08580696	     -3.32022929
      0.69583333	      2.01574139	     -8.03948565	      5.55517916	      0.09540557	      0.98195567	      0.26906913	     25.42092850	      9.20193418	     -7.71471662	    -19.85515288	      1.50632283	    -22.30565051	      0.38188370	    -24.72950063	    -11.74728681	     -7.53342102	     -9.34641264	      7.89879600	      1.50680848	     22.91831181	      0.02287875	      0.00348518	     -0.01247895	      4.03566113	    -10.81890097	     10.32854541	     -3.13284242
